REM DIRINDEX 1\2\6,1\2\7,1\2\8,1\3\9,1\3\10,1\3\11,1\4\12,1\4\13,1\4\14,1\5\15,1\5\16,1\5\17,1\5\18
REM DIRNAME folder01,folder02,folder03,folder04,folder05,folder06,folder07,folder08,folder09,folder10,folder11,folder12,folder13,folder14,folder15,folder16,folder17,folder18
TITLE ""
FILE "2Q_t_0266-0283.mp3" MP3
  TRACK 01 AUDIO
    TITLE "13:cjc019_2588"
    INDEX 01 00:00:00
  TRACK 02 AUDIO
    TITLE "0:"
    INDEX 01 00:00:74
  TRACK 03 AUDIO
    TITLE "14:cjc019_2589"
    INDEX 01 00:01:52
  TRACK 04 AUDIO
    TITLE "0:"
    INDEX 01 00:06:18
  TRACK 05 AUDIO
    TITLE "13:cjc019_2590"
    INDEX 01 00:06:71
  TRACK 06 AUDIO
    TITLE "0:"
    INDEX 01 00:08:01
  TRACK 07 AUDIO
    TITLE "14:cjc019_2591"
    INDEX 01 00:08:58
  TRACK 08 AUDIO
    TITLE "0:"
    INDEX 01 00:11:09
  TRACK 09 AUDIO
    TITLE "13:cjc019_2592"
    INDEX 01 00:11:60
  TRACK 10 AUDIO
    TITLE "0:"
    INDEX 01 00:13:00
  TRACK 11 AUDIO
    TITLE "14:cjc019_2593"
    INDEX 01 00:13:53
  TRACK 12 AUDIO
    TITLE "0:"
    INDEX 01 00:16:16
  TRACK 13 AUDIO
    TITLE "13:cjc019_2594"
    INDEX 01 00:16:69
  TRACK 14 AUDIO
    TITLE "0:"
    INDEX 01 00:18:25
  TRACK 15 AUDIO
    TITLE "14:cjc019_2595"
    INDEX 01 00:19:03
  TRACK 16 AUDIO
    TITLE "0:"
    INDEX 01 00:21:13
  TRACK 17 AUDIO
    TITLE "13:cjc019_2596"
    INDEX 01 00:21:68
  TRACK 18 AUDIO
    TITLE "0:"
    INDEX 01 00:22:72
  TRACK 19 AUDIO
    TITLE "14:cjc019_2597"
    INDEX 01 00:23:61
  TRACK 20 AUDIO
    TITLE "0:"
    INDEX 01 00:25:70
  TRACK 21 AUDIO
    TITLE "13:cjc019_2598"
    INDEX 01 00:26:44
  TRACK 22 AUDIO
    TITLE "0:"
    INDEX 01 00:27:73
  TRACK 23 AUDIO
    TITLE "14:cjc019_2599"
    INDEX 01 00:28:53
  TRACK 24 AUDIO
    TITLE "0:"
    INDEX 01 00:31:16
  TRACK 25 AUDIO
    TITLE "13:cjc019_2600"
    INDEX 01 00:31:71
  TRACK 26 AUDIO
    TITLE "0:"
    INDEX 01 00:33:30
  TRACK 27 AUDIO
    TITLE "14:cjc019_2601"
    INDEX 01 00:34:16
  TRACK 28 AUDIO
    TITLE "0:"
    INDEX 01 00:36:46
  TRACK 29 AUDIO
    TITLE "13:cjc019_2602"
    INDEX 01 00:37:24
  TRACK 30 AUDIO
    TITLE "0:"
    INDEX 01 00:38:47
  TRACK 31 AUDIO
    TITLE "14:cjc019_2603"
    INDEX 01 00:39:21
  TRACK 32 AUDIO
    TITLE "0:"
    INDEX 01 00:42:25
  TRACK 33 AUDIO
    TITLE "13:cjc019_2604"
    INDEX 01 00:43:07
  TRACK 34 AUDIO
    TITLE "0:"
    INDEX 01 00:44:22
  TRACK 35 AUDIO
    TITLE "14:cjc019_2605"
    INDEX 01 00:45:04
  TRACK 36 AUDIO
    TITLE "0:"
    INDEX 01 00:47:07
  TRACK 37 AUDIO
    TITLE "13:cjc019_2606"
    INDEX 01 00:47:62
  TRACK 38 AUDIO
    TITLE "0:"
    INDEX 01 00:49:25
  TRACK 39 AUDIO
    TITLE "14:cjc019_2607"
    INDEX 01 00:50:07
  TRACK 40 AUDIO
    TITLE "0:"
    INDEX 01 00:51:30
  TRACK 41 AUDIO
    TITLE "13:cjc019_2608"
    INDEX 01 00:52:08
  TRACK 42 AUDIO
    TITLE "0:"
    INDEX 01 00:53:35
  TRACK 43 AUDIO
    TITLE "14:cjc019_2609"
    INDEX 01 00:54:15
  TRACK 44 AUDIO
    TITLE "0:"
    INDEX 01 00:56:33
  TRACK 45 AUDIO
    TITLE "13:cjc019_2610"
    INDEX 01 00:57:13
  TRACK 46 AUDIO
    TITLE "0:"
    INDEX 01 00:58:18
  TRACK 47 AUDIO
    TITLE "14:cjc019_2611"
    INDEX 01 00:59:00
  TRACK 48 AUDIO
    TITLE "0:"
    INDEX 01 01:03:26
  TRACK 49 AUDIO
    TITLE "13:cjc019_2612"
    INDEX 01 01:04:01
  TRACK 50 AUDIO
    TITLE "0:"
    INDEX 01 01:05:21
  TRACK 51 AUDIO
    TITLE "14:cjc019_2613"
    INDEX 01 01:06:00
  TRACK 52 AUDIO
    TITLE "0:"
    INDEX 01 01:07:10
  TRACK 53 AUDIO
    TITLE "13:cjc019_2614"
    INDEX 01 01:07:63
  TRACK 54 AUDIO
    TITLE "0:"
    INDEX 01 01:08:72
  TRACK 55 AUDIO
    TITLE "14:cjc019_2615"
    INDEX 01 01:09:56
  TRACK 56 AUDIO
    TITLE "0:"
    INDEX 01 01:13:26
  TRACK 57 AUDIO
    TITLE "13:cjc019_2616"
    INDEX 01 01:14:10
  TRACK 58 AUDIO
    TITLE "0:"
    INDEX 01 01:15:27
  TRACK 59 AUDIO
    TITLE "14:cjc019_2617"
    INDEX 01 01:16:14
  TRACK 60 AUDIO
    TITLE "0:"
    INDEX 01 01:18:43
  TRACK 61 AUDIO
    TITLE "13:cjc019_2618"
    INDEX 01 01:19:27
  TRACK 62 AUDIO
    TITLE "0:"
    INDEX 01 01:20:42
  TRACK 63 AUDIO
    TITLE "14:cjc019_2619"
    INDEX 01 01:21:27
  TRACK 64 AUDIO
    TITLE "0:"
    INDEX 01 01:22:41
  TRACK 65 AUDIO
    TITLE "13:cjc019_2620"
    INDEX 01 01:23:22
  TRACK 66 AUDIO
    TITLE "0:"
    INDEX 01 01:24:53
  TRACK 67 AUDIO
    TITLE "14:cjc019_2621"
    INDEX 01 01:25:41
  TRACK 68 AUDIO
    TITLE "0:"
    INDEX 01 01:28:71
  TRACK 69 AUDIO
    TITLE "13:cjc019_2622"
    INDEX 01 01:29:50
  TRACK 70 AUDIO
    TITLE "0:"
    INDEX 01 01:30:56
  TRACK 71 AUDIO
    TITLE "14:cjc019_2623"
    INDEX 01 01:31:36
  TRACK 72 AUDIO
    TITLE "0:"
    INDEX 01 01:36:11
